<svg width="512" height="448" viewBox="0 0 512 448" fill="none" xmlns="http://www.w3.org/2000/svg">
<path d="M336.835 22.718C336.004 22.084 328.308 16.359 314.599 10.85C296.938 3.752 276.673 0 255.996 0C235.319 0 215.055 3.752 197.392 10.85C183.684 16.359 175.988 22.084 175.156 22.719C170.982 25.902 168.532 30.851 168.532 36.1V62.501L185.359 71.501L202.187 62.501V45.629C211.422 40.916 229.89 33.654 255.995 33.654C282.101 33.654 300.568 40.916 309.803 45.629V62.5L326.63 71.5L343.458 62.5V36.1C343.46 30.85 341.01 25.901 336.835 22.718Z" fill="#E8834D"/>
<path d="M168.533 62.501V81.081L185.361 90.081L202.189 81.081V62.501H168.533Z" fill="#D66E41"/>
<path d="M343.46 62.501H309.805V81.081L326.633 90.081L343.46 81.081V62.501Z" fill="#D66E41"/>
<path d="M13.247 266.198V415.69C13.247 433.437 27.634 447.824 45.381 447.824H466.619C484.366 447.824 498.753 433.437 498.753 415.69V266.198H13.247Z" fill="#1D4ED8"/>
<path d="M13.247 266.198V415.69C13.247 433.437 27.634 447.824 45.381 447.824H466.619C484.366 447.824 498.753 433.437 498.753 415.69V266.198H13.247Z" fill="#1D4ED8"/>
<path d="M13.247 247.618V266.199C39.943 287.395 110.499 328.542 256 328.542C401.501 328.542 472.057 287.395 498.753 266.198V247.617H13.247V247.618Z" fill="#2B4D66"/>
<path d="M13.247 247.618V266.199C39.943 287.395 110.499 328.542 256 328.542C401.501 328.542 472.057 287.395 498.753 266.198V247.617H13.247V247.618Z" fill="#2B4D66"/>
<path d="M11.852 236.917C37.437 257.747 107.895 300.381 256 300.381C404.105 300.381 474.562 257.747 500.148 236.917C507.648 230.811 512 212.661 512 202.99V113.215C512 95.468 497.613 81.081 479.866 81.081H32.134C14.387 81.081 0 95.468 0 113.215V202.99C0 212.661 4.352 230.811 11.852 236.917Z" fill="#1D4ED8"/>
<path d="M11.852 236.917C37.437 257.747 107.895 300.381 256 300.381C404.105 300.381 474.562 257.747 500.148 236.917C507.648 230.811 512 212.661 512 202.99V113.215C512 95.468 497.613 81.081 479.866 81.081H32.134C14.387 81.081 0 95.468 0 113.215V202.99C0 212.661 4.352 230.811 11.852 236.917Z" fill="#1D4ED8"/>
<path d="M500.148 227.917C474.563 248.747 404.105 291.381 256 291.381C107.895 291.381 37.438 248.746 11.852 227.917C4.352 221.811 0 212.661 0 202.99V221.571C0 231.242 4.352 240.392 11.852 246.498C37.437 267.328 107.895 309.962 256 309.962C404.105 309.962 474.562 267.328 500.148 246.498C507.648 240.392 512 231.242 512 221.571V202.99C512 212.661 507.648 221.811 500.148 227.917Z" fill="#1D4ED8"/>
<path d="M500.148 227.917C474.563 248.747 404.105 291.381 256 291.381C107.895 291.381 37.438 248.746 11.852 227.917C4.352 221.811 0 212.661 0 202.99V221.571C0 231.242 4.352 240.392 11.852 246.498C37.437 267.328 107.895 309.962 256 309.962C404.105 309.962 474.562 267.328 500.148 246.498C507.648 240.392 512 231.242 512 221.571V202.99C512 212.661 507.648 221.811 500.148 227.917Z" fill="#1D4ED8"/>
<path d="M255.997 340.886C272.621 340.886 286.097 328.542 286.097 301.786V283.536C286.097 277.62 281.301 272.825 275.386 272.825H236.608C230.692 272.825 225.897 277.621 225.897 283.536V301.789C225.896 328.542 239.373 340.886 255.997 340.886Z" fill="#FFE27A"/>
<path d="M255.997 340.886C272.621 340.886 286.097 328.542 286.097 301.786V283.536C286.097 277.62 281.301 272.825 275.386 272.825H236.608C230.692 272.825 225.897 277.621 225.897 283.536V301.789C225.896 328.542 239.373 340.886 255.997 340.886Z" fill="#FFE27A"/>
<path d="M255.997 331.886C239.373 331.886 225.897 318.41 225.897 301.786V320.367C225.897 336.991 239.373 350.467 255.997 350.467C272.621 350.467 286.097 336.991 286.097 320.367V301.786C286.097 318.409 272.621 331.886 255.997 331.886Z" fill="#F9CF58"/>
</svg>
